<svg width="3202" height="1081" viewBox="0 0 3202 1081" fill="none" xmlns="http://www.w3.org/2000/svg">
<path fill-rule="evenodd" clip-rule="evenodd" d="M394.866 3.127C386.263 4.931 373.879 9.77801 365.969 14.439C353.071 22.039 338.834 37.652 331.514 52.226C323.877 67.432 321.542 78.809 322.02 98.502L322.366 112.796L315.866 115.092C294.333 122.699 249.107 149.707 223.366 170.331C182.856 202.789 150.138 247.871 129.109 300.208C113.327 339.487 101.24 389.979 98.2234 429.228L97.5874 437.499L89.9764 438.178C63.5064 440.538 38.9874 453.988 22.6714 475.099C6.51937 495.998 -0.93963 518.89 0.09437 544.387C0.67537 558.723 3.33136 569.654 9.31336 582.331C25.0144 615.6 51.0374 634.509 89.6874 640.734C93.7134 641.382 97.1474 642.429 97.3184 643.06C97.4904 643.692 98.3524 650.601 99.2354 658.414C102.275 685.324 111.872 727.724 120.953 754.364C143.745 821.232 189.234 882.562 243.098 919.045C266.306 934.765 284.076 942.943 315.01 952.138L323.654 954.707L322.669 958.958C321.076 965.84 322.313 989.983 324.721 998.992C335.806 1040.47 372.048 1068.6 414.509 1068.69C435.104 1068.73 452.61 1062.77 470.366 1049.67C488.573 1036.23 501.817 1012.04 504.96 986.479C510.572 940.825 480.066 896.14 435.506 884.744C406.841 877.413 376.484 884.556 354.491 903.808C349.847 907.873 347.089 909.623 345.991 909.201C345.097 908.857 340.308 907.52 335.347 906.23C299.237 896.841 276.238 882.892 244.074 850.874C195.228 802.249 168.473 750.967 153.469 677.208C151.007 665.106 145.852 634.681 145.882 632.425C145.891 631.756 149.153 629.104 153.132 626.532C170.753 615.141 183.395 601.446 191.279 585.208C199.544 568.185 202.39 554.519 201.565 535.815C200.537 512.488 193.148 493.554 177.831 474.994C171.285 467.061 156.798 454.847 150.033 451.557C146.483 449.83 145.802 449.066 146.263 447.329C146.572 446.162 147.331 441.608 147.95 437.208C156.735 374.765 166.905 338.354 186.436 299.411C204.795 262.805 225.476 235.867 253.223 212.419C280.377 189.471 303.674 174.672 332.187 162.257L345.007 156.675L351.978 163.037C367.731 177.414 391.731 186.571 413.932 186.673C441.837 186.802 472.128 170.897 487.708 147.936C505.823 121.238 509.652 90.3321 498.516 60.6861C496.692 55.8291 493.662 49.2981 491.783 46.1711C486.587 37.5271 476.448 26.1341 469.025 20.5981C460.731 14.4131 446.723 7.4771 436.866 4.6751C427.209 1.9301 404.559 1.095 394.866 3.127ZM641.866 248.408C641.041 248.707 625.291 254.491 606.866 261.263C588.441 268.035 557.841 279.27 538.866 286.23C519.891 293.19 493.341 302.939 479.866 307.893C439.865 322.6 404.542 335.477 385.366 342.342C358.364 352.008 349.953 356.394 340.771 365.596C335.431 370.947 332.238 375.181 330.021 379.851C323.511 393.559 323.797 384.765 324.112 561.208L324.397 721.208L326.53 727.426C330.434 738.807 333.967 742.844 344.751 748.249C352.075 751.921 363.928 755.903 441.366 780.707C451.378 783.914 487.391 795.483 621.366 838.531C631.346 841.738 633.479 842.072 644.366 842.137C655.826 842.205 656.666 842.066 663.017 839.057C673.652 834.018 680.313 825.971 684.015 813.691C685.117 810.034 685.366 787.343 685.366 690.542C685.366 625.276 685.618 571.624 685.927 571.315C686.236 571.006 704.011 570.715 725.427 570.669L764.366 570.585L769.375 580.396C775.548 592.487 779.288 597.947 787.155 606.358C798.342 618.316 813.632 627.231 830.866 631.841C843.027 635.094 863.746 635.1 875.774 631.854C895.8 626.449 913.807 614.73 925.566 599.448C935.297 586.801 943.125 566.929 944.67 550.946C947.77 518.879 932.229 483.324 907.073 464.929C887.083 450.312 866.332 444.49 842.316 446.762C808.575 449.955 778.158 474.913 766.261 509.168L763.121 518.208L747.743 518.859C739.286 519.217 721.936 519.731 709.189 520L686.011 520.491L685.606 512.349C685.383 507.872 685.121 454.676 685.025 394.136C684.834 274.498 684.98 277.699 679.291 267.991C672.73 256.793 658.995 247.645 648.956 247.787C645.882 247.83 642.691 248.11 641.866 248.408ZM2031.36 251.66C2018.16 254.496 2008.69 259.817 2000.05 269.253C1989.83 280.397 1985.81 291.238 1985.77 307.708C1985.73 324.993 1991.08 337.779 2003.04 348.987C2022.16 366.914 2052.55 368.615 2074.65 352.995C2093.88 339.412 2102.09 313.421 2094.52 290.13C2087.01 267.049 2068.07 252.615 2043.5 251.25C2039.03 251.001 2033.56 251.186 2031.36 251.66ZM2321 286.458C2320.49 287.421 2318.49 292.708 2316.55 298.208C2314.62 303.708 2309.14 319.008 2304.37 332.208C2294.04 360.824 2270.53 426.391 2262.07 450.208C2237.36 519.704 2227.84 546.183 2212.07 589.208C2202.2 616.158 2190.7 647.658 2186.53 659.208C2162.28 726.302 2139.9 787.672 2138.57 790.726L2137.03 794.245L2188.54 794.083C2216.87 793.994 2240.39 793.535 2240.8 793.064C2241.21 792.593 2249.04 769.933 2258.19 742.708C2267.34 715.483 2275.7 690.958 2276.75 688.208L2278.67 683.208H2376.75H2474.84L2481.74 703.208C2495.83 744.094 2513.01 792.234 2513.79 793.02C2514.6 793.838 2614.41 794.827 2615.22 794.025C2615.45 793.788 2614.54 790.582 2613.18 786.901C2611.82 783.22 2608.08 772.783 2604.87 763.708C2601.66 754.633 2595 735.958 2590.08 722.208C2585.15 708.458 2572.33 672.683 2561.59 642.708C2523.89 537.498 2481.57 418.948 2472.34 392.708C2467.22 378.133 2459.66 356.758 2455.54 345.208C2451.43 333.658 2445.3 316.333 2441.93 306.708C2438.55 297.083 2435.37 288.195 2434.85 286.958L2433.91 284.708H2377.92C2325.63 284.708 2321.88 284.823 2321 286.458ZM2665.87 539.145C2665.87 742.144 2666.12 793.702 2667.12 793.679C2667.8 793.663 2690.11 793.775 2716.68 793.929L2764.99 794.208L2764.9 705.458L2764.81 616.708L2810.59 616.706C2890.11 616.702 2911.88 614.319 2943.37 602.173C2969.18 592.216 2995.15 572.194 3011.18 549.898C3030.09 523.593 3039.89 490.929 3039.85 454.379C3039.8 415.872 3030.47 383.884 3011.3 356.585C3002.9 344.614 2981.44 323.339 2970.28 315.922C2952.25 303.927 2934.5 296.179 2912.78 290.814C2890.77 285.378 2892.1 285.434 2775.12 284.993L2665.87 284.581V539.145ZM3101.87 539.708C3101.87 742.253 3102.12 793.704 3103.12 793.686C3103.8 793.674 3126.3 793.786 3153.12 793.936L3201.87 794.208V539.958V285.708H3151.87H3101.87V539.708ZM1057.83 287.458C1057.82 287.87 1057.83 366.733 1057.86 462.708C1057.9 577.438 1058.28 640.444 1058.97 646.656C1064.31 694.747 1093.81 742.227 1135.88 770.438C1172.99 795.321 1228.43 808.206 1278.87 803.666C1315.59 800.359 1348.9 789.975 1377.37 772.955C1397.07 761.173 1418.18 741.804 1431.09 723.662C1443.46 706.283 1455.13 679.741 1459.21 659.708C1462.63 642.937 1462.86 630.431 1462.86 459.569L1462.87 289.931L1440.62 289.344C1428.38 289.021 1405.89 288.503 1390.65 288.193L1362.93 287.63L1362.6 461.419L1362.28 635.208L1360 643.208C1355.19 660.103 1345.31 677.317 1334.74 687.256C1320.88 700.276 1305.29 707.446 1281.53 711.724C1248.99 717.583 1215.31 710.425 1191.61 692.615C1176.84 681.519 1163.67 658.562 1159.23 636.177C1157.57 627.831 1157.43 615.373 1157.12 456.958L1156.79 286.708H1107.33C1080.12 286.708 1057.85 287.046 1057.83 287.458ZM2854.87 373.676C2873.24 374.342 2880.04 374.97 2886.04 376.558C2924.84 386.821 2942.04 410.788 2941.96 454.474C2941.94 465.346 2941.44 470.815 2939.87 477.436C2932.71 507.561 2911.44 525.758 2876.87 531.33C2865.03 533.238 2767.42 534.658 2765.71 532.948C2765.02 532.258 2764.48 505.238 2764.11 452.309L2763.56 372.708L2797.46 372.767C2816.11 372.799 2841.94 373.208 2854.87 373.676ZM586.859 542.958C586.855 635.495 586.573 714.162 586.232 717.773L585.611 724.338L529.489 706.433C449.299 680.851 437.22 677.048 429.366 674.911L422.366 673.007L421.752 649.107C420.904 616.137 420.728 458.76 421.523 444.955L422.172 433.703L426.269 432.617C428.522 432.02 438.691 428.456 448.866 424.696C459.041 420.936 475.691 414.843 485.866 411.157C496.041 407.47 507.966 403.123 512.366 401.496C534.601 393.276 551.831 387.024 565.61 382.177C573.995 379.227 581.645 376.354 582.61 375.791C583.576 375.229 584.929 374.755 585.616 374.738C586.611 374.714 586.865 409.005 586.859 542.958ZM2379.27 403.968C2380.58 407.543 2395.47 450.507 2409.86 492.208C2411.94 498.258 2417.11 513.108 2421.33 525.208C2436.99 570.072 2445.87 596.209 2445.87 597.47C2445.87 598.522 2432.89 598.75 2377.37 598.674C2300.07 598.567 2307.24 599.434 2310.46 590.584C2311.34 588.177 2315.81 575.183 2320.39 561.708C2324.97 548.233 2337.35 512.008 2347.89 481.208C2358.43 450.408 2369.09 419.25 2371.57 411.967C2374.05 404.685 2376.45 398.952 2376.9 399.228C2377.34 399.503 2378.41 401.637 2379.27 403.968ZM1739.12 409.739C1705.52 414.824 1680.35 426.368 1658.62 446.664C1654.6 450.417 1649.31 456.237 1646.86 459.598C1644.42 462.958 1642.07 465.708 1641.64 465.708C1641.21 465.708 1640.86 460.87 1640.86 454.958C1640.86 449.046 1640.57 438.471 1640.21 431.458L1639.56 418.708H1609.87C1593.54 418.708 1573.45 418.999 1565.22 419.356L1550.26 420.003L1550.31 606.881L1550.37 793.758L1598.37 794.008L1646.37 794.259V675.233V556.208L1648.62 548.208C1653.46 531.059 1661.38 519.65 1674.85 510.452C1684.88 503.596 1694.8 499.584 1708.94 496.663C1717.79 494.836 1721.56 494.586 1733.87 495.018C1751.71 495.643 1761.31 497.906 1775.85 504.919C1789.94 511.713 1797.57 519.183 1804.22 532.708C1806.79 537.933 1809.89 545.808 1811.11 550.208L1813.34 558.208L1813.85 675.937L1814.37 793.665L1862.12 793.937L1909.87 794.208V669.67C1909.87 539.142 1909.75 535.206 1905.4 514.793C1901.77 497.739 1894.35 480.28 1884.55 465.716C1877.7 455.545 1861.16 439.104 1851.37 432.73C1819.82 412.201 1778.62 403.761 1739.12 409.739ZM1991.78 419.458C1991.73 419.87 1991.71 504.258 1991.75 606.986L1991.8 793.764L2038.83 793.986L2085.87 794.208V607.083V419.958L2082.74 419.333C2078.27 418.439 1991.88 418.557 1991.78 419.458ZM109.051 493.223C125.12 496.55 136.481 505.079 143.346 518.971C146.821 526.001 147.215 527.627 147.654 536.754C148.245 549.028 146.358 557.09 140.925 565.495C132.02 579.274 118.022 586.669 100.798 586.696C81.6804 586.726 66.2304 577.053 58.0574 559.938C54.4094 552.298 54.3664 552.062 54.3664 539.656C54.3664 527.105 54.3664 527.104 58.2244 519.298C65.2374 505.107 76.6554 496.221 91.7334 493.217C100.5 491.471 100.589 491.471 109.051 493.223Z" fill="#0F406B"/>
<path d="M951 541C951 595.124 907.124 639 853 639C798.876 639 755 595.124 755 541C755 486.876 798.876 443 853 443C907.124 443 951 486.876 951 541Z" fill="#1EAE95"/>
<path d="M510.5 98.5C510.5 152.624 466.624 196.5 412.5 196.5C358.376 196.5 314.5 152.624 314.5 98.5C314.5 44.3761 358.376 0.5 412.5 0.5C466.624 0.5 510.5 44.3761 510.5 98.5Z" fill="#5556B3"/>
<path d="M510.5 982.5C510.5 1036.62 466.624 1080.5 412.5 1080.5C358.376 1080.5 314.5 1036.62 314.5 982.5C314.5 928.376 358.376 884.5 412.5 884.5C466.624 884.5 510.5 928.376 510.5 982.5Z" fill="#0F406B"/>
</svg>
