<svg width="11269" height="3790" viewBox="0 0 11269 3790" fill="none" xmlns="http://www.w3.org/2000/svg">
<path fill-rule="evenodd" clip-rule="evenodd" d="M1389.71 9.24571C1359.43 15.5948 1315.85 32.6536 1288.01 49.0577C1242.62 75.8055 1192.51 130.755 1166.75 182.047C1139.87 235.564 1131.65 275.604 1133.33 344.913L1134.55 395.22L1111.67 403.301C1035.89 430.073 876.72 525.126 786.126 597.711C643.553 711.945 528.404 870.609 454.393 1054.81C398.849 1193.05 356.31 1370.75 345.692 1508.88L343.453 1537.99L316.667 1540.38C223.507 1548.69 137.214 1596.03 79.7906 1670.33C22.9445 1743.88 -3.30698 1824.45 0.33213 1914.18C2.37693 1964.64 11.7246 2003.11 32.7779 2047.72C88.0367 2164.81 179.623 2231.36 315.65 2253.27C329.819 2255.55 341.905 2259.23 342.507 2261.45C343.112 2263.68 346.146 2287.99 349.253 2315.49C359.953 2410.2 393.729 2559.42 425.689 2653.18C505.904 2888.52 666 3104.37 855.571 3232.77C937.25 3288.09 999.791 3316.88 1108.66 3349.24L1139.08 3358.28L1135.62 3373.24C1130.01 3397.46 1134.36 3482.43 1142.84 3514.14C1181.85 3660.1 1309.4 3759.1 1458.84 3759.42C1531.33 3759.58 1592.94 3738.6 1655.43 3692.49C1719.51 3645.21 1766.12 3560.06 1777.18 3470.1C1796.93 3309.42 1689.57 3152.16 1532.74 3112.05C1431.86 3086.25 1325.02 3111.39 1247.61 3179.14C1231.27 3193.45 1221.56 3199.61 1217.7 3198.12C1214.55 3196.91 1197.7 3192.21 1180.24 3187.67C1053.15 3154.62 972.206 3105.53 859.006 2992.84C687.095 2821.71 592.933 2641.23 540.127 2381.64C531.462 2339.04 513.319 2231.97 513.425 2224.03C513.457 2221.67 524.937 2212.34 538.941 2203.29C600.957 2163.2 645.45 2115 673.197 2057.85C702.285 1997.94 712.302 1949.84 709.398 1884.01C705.78 1801.91 679.775 1735.28 625.868 1669.96C602.829 1642.04 551.843 1599.05 528.034 1587.47C515.54 1581.39 513.143 1578.7 514.766 1572.59C515.853 1568.48 518.525 1552.46 520.703 1536.97C551.621 1317.21 587.414 1189.06 656.153 1052C720.766 923.168 793.552 828.362 891.206 745.838C986.773 665.073 1068.76 612.989 1169.11 569.295L1214.23 549.65L1238.77 572.04C1294.21 622.639 1378.68 654.867 1456.81 655.226C1555.02 655.68 1661.63 599.703 1716.46 518.893C1780.22 424.931 1793.69 316.159 1754.5 211.822C1748.08 194.728 1737.42 171.742 1730.8 160.737C1712.52 130.315 1676.83 90.2178 1650.71 70.7342C1621.52 48.9664 1572.22 24.5556 1537.53 14.6941C1503.54 5.03327 1423.82 2.0942 1389.71 9.24571ZM2259.01 872.499C2256.11 873.551 2200.68 893.908 2135.83 917.741C2070.99 941.575 1963.29 981.116 1896.51 1005.61C1829.73 1030.11 1736.29 1064.42 1688.86 1081.85C1548.08 1133.61 1423.76 1178.93 1356.28 1203.09C1261.24 1237.11 1231.64 1252.55 1199.33 1284.94C1180.53 1303.77 1169.29 1318.67 1161.49 1335.1C1138.58 1383.35 1139.59 1352.4 1140.7 1973.38L1141.7 2536.49L1149.21 2558.38C1162.95 2598.43 1175.38 2612.64 1213.33 2631.66C1239.11 2644.58 1280.83 2658.6 1553.36 2745.9C1588.6 2757.18 1715.35 2797.9 2186.86 2949.4C2221.99 2960.69 2229.5 2961.87 2267.81 2962.09C2308.14 2962.33 2311.1 2961.85 2333.45 2951.26C2370.88 2933.52 2394.33 2905.2 2407.35 2861.98C2411.23 2849.11 2412.11 2769.25 2412.11 2428.56C2412.11 2198.86 2413 2010.04 2414.08 2008.95C2415.17 2007.86 2477.73 2006.84 2553.1 2006.68L2690.15 2006.38L2707.77 2040.91C2729.5 2083.47 2742.66 2102.68 2770.35 2132.28C2809.72 2174.37 2863.53 2205.75 2924.19 2221.97C2966.99 2233.42 3039.91 2233.44 3082.24 2222.02C3152.72 2202.99 3216.09 2161.75 3257.48 2107.96C3291.73 2063.45 3319.28 1993.52 3324.71 1937.26C3335.63 1824.41 3280.93 1699.27 3192.39 1634.53C3122.04 1583.09 3049.01 1562.6 2964.49 1570.59C2845.74 1581.83 2738.69 1669.67 2696.81 1790.23L2685.76 1822.04L2631.64 1824.34C2601.88 1825.6 2540.82 1827.41 2495.95 1828.35L2414.38 1830.08L2412.95 1801.42C2412.17 1785.67 2411.25 1598.45 2410.91 1385.38C2410.24 964.321 2410.75 975.587 2390.73 941.42C2367.64 902.009 2319.3 869.813 2283.97 870.313C2273.15 870.464 2261.92 871.45 2259.01 872.499ZM7149.25 883.944C7102.81 893.925 7069.48 912.652 7039.05 945.862C7003.11 985.082 6988.95 1023.24 6988.82 1081.2C6988.68 1142.04 7007.5 1187.04 7049.58 1226.48C7116.88 1289.57 7223.83 1295.56 7301.63 1240.59C7369.29 1192.78 7398.19 1101.31 7371.53 1019.34C7345.11 938.105 7278.46 887.305 7191.99 882.501C7176.24 881.625 7157.01 882.276 7149.25 883.944ZM8168.64 1006.41C8166.83 1009.8 8159.78 1028.41 8152.98 1047.77C8146.18 1067.12 8126.89 1120.97 8110.12 1167.43C8073.76 1268.14 7991.02 1498.9 7961.22 1582.72C7874.28 1827.31 7840.76 1920.5 7785.27 2071.93C7750.52 2166.77 7710.06 2277.64 7695.37 2318.29C7610.04 2554.42 7531.28 2770.41 7526.58 2781.16L7521.17 2793.54L7702.46 2792.97C7802.17 2792.66 7884.93 2791.04 7886.38 2789.39C7887.83 2787.73 7915.37 2707.98 7947.58 2612.16C7979.79 2516.34 8009.18 2430.03 8012.89 2420.35L8019.64 2402.75H8364.85H8710.07L8734.33 2473.14C8783.94 2617.04 8844.41 2786.46 8847.14 2789.23C8849.98 2792.11 9201.28 2795.59 9204.11 2792.77C9204.94 2791.93 9201.71 2780.65 9196.93 2767.7C9192.15 2754.74 9178.99 2718.01 9167.7 2686.07C9156.4 2654.13 9132.97 2588.4 9115.63 2540.01C9098.29 2491.62 9053.18 2365.71 9015.38 2260.22C8882.69 1889.94 8733.73 1472.7 8701.26 1380.35C8683.23 1329.06 8656.62 1253.83 8642.15 1213.18C8627.67 1172.53 8606.11 1111.56 8594.22 1077.68C8582.35 1043.81 8571.14 1012.53 8569.32 1008.17L8566.01 1000.25H8368.97C8184.91 1000.25 8171.71 1000.66 8168.64 1006.41ZM9382.37 1895.73C9382.37 2610.18 9383.26 2791.63 9386.77 2791.55C9389.19 2791.49 9467.68 2791.89 9561.2 2792.43L9731.24 2793.41L9730.91 2481.06L9730.58 2168.71L9891.7 2168.7C10171.6 2168.69 10248.2 2160.3 10359 2117.56C10449.9 2082.51 10541.3 2012.05 10597.7 1933.58C10664.2 1841 10698.7 1726.04 10698.6 1597.4C10698.4 1461.88 10665.6 1349.3 10598.1 1253.22C10568.5 1211.09 10493 1136.21 10453.8 1110.11C10390.3 1067.89 10327.8 1040.63 10251.4 1021.74C10173.9 1002.61 10178.6 1002.81 9766.87 1001.26L9382.37 999.808V1895.73ZM10916.8 1897.71C10916.8 2610.56 10917.7 2791.64 10921.2 2791.57C10923.7 2791.53 11002.9 2791.93 11097.2 2792.45L11268.8 2793.41V1898.59V1003.77H11092.8H10916.8V1897.71ZM3722.99 1009.93C3722.93 1011.38 3722.97 1288.94 3723.08 1626.72C3723.22 2030.5 3724.56 2252.25 3726.99 2274.11C3745.79 2443.36 3849.62 2610.47 3997.67 2709.75C4128.26 2797.33 4323.41 2842.68 4500.9 2826.7C4630.16 2815.06 4747.38 2778.51 4847.56 2718.61C4916.92 2677.15 4991.22 2608.98 5036.66 2545.13C5080.18 2483.96 5121.25 2390.55 5135.62 2320.05C5147.65 2261.02 5148.45 2217.01 5148.47 1615.67L5148.48 1018.64L5070.17 1016.57C5027.1 1015.43 4947.96 1013.61 4894.3 1012.52L4796.74 1010.54L4795.61 1622.18L4794.48 2233.82L4786.45 2261.98C4769.5 2321.44 4734.75 2382.02 4697.53 2417C4648.77 2462.82 4593.91 2488.06 4510.29 2503.11C4395.77 2523.73 4277.2 2498.54 4193.8 2435.86C4141.83 2396.81 4095.48 2316.01 4079.85 2237.23C4074.02 2207.86 4073.5 2164.01 4072.41 1606.48L4071.24 1007.29H3897.17C3801.43 1007.29 3723.05 1008.48 3722.99 1009.93ZM10047.5 1313.37C10112.2 1315.72 10136.1 1317.93 10157.3 1323.52C10293.8 1359.64 10354.4 1443.99 10354.1 1597.74C10354 1636 10352.2 1655.25 10346.7 1678.55C10321.5 1784.57 10246.7 1848.62 10125 1868.23C10083.3 1874.94 9739.77 1879.94 9733.75 1873.92C9731.32 1871.49 9729.44 1776.4 9728.14 1590.12L9726.19 1309.97L9845.51 1310.17C9911.14 1310.29 10002.1 1311.73 10047.5 1313.37ZM2065.42 1909.15C2065.4 2234.83 2064.41 2511.69 2063.21 2524.4L2061.03 2547.51L1863.51 2484.49C1581.28 2394.46 1538.77 2381.07 1511.13 2373.55L1486.49 2366.85L1484.33 2282.74C1481.35 2166.7 1480.73 1612.82 1483.53 1564.23L1485.81 1524.63L1500.23 1520.81C1508.16 1518.71 1543.95 1506.17 1579.76 1492.93C1615.57 1479.7 1674.17 1458.26 1709.98 1445.28C1745.79 1432.31 1787.76 1417.01 1803.25 1411.28C1881.5 1382.35 1942.14 1360.35 1990.63 1343.29C2020.14 1332.91 2047.07 1322.8 2050.46 1320.82C2053.86 1318.84 2058.63 1317.17 2061.04 1317.11C2064.55 1317.03 2065.44 1437.71 2065.42 1909.15ZM8373.69 1419.98C8378.31 1432.57 8430.73 1583.78 8481.35 1730.54C8488.7 1751.83 8506.87 1804.1 8521.74 1846.68C8576.86 2004.58 8608.09 2096.56 8608.09 2101C8608.09 2104.71 8562.41 2105.51 8367.01 2105.24C8094.95 2104.86 8120.19 2107.92 8131.54 2076.77C8134.63 2068.3 8150.36 2022.57 8166.48 1975.14C8182.61 1927.72 8226.16 1800.22 8263.26 1691.83C8300.36 1583.43 8337.87 1473.77 8346.61 1448.14C8355.35 1422.51 8363.79 1402.33 8365.36 1403.3C8366.93 1404.27 8370.68 1411.78 8373.69 1419.98ZM6120.74 1440.29C6002.49 1458.19 5913.91 1498.82 5837.43 1570.25C5823.28 1583.46 5804.66 1603.94 5796.05 1615.77C5787.44 1627.6 5779.16 1637.27 5777.66 1637.27C5776.16 1637.27 5774.93 1620.25 5774.92 1599.44C5774.92 1578.63 5773.88 1541.41 5772.62 1516.73L5770.33 1471.86H5665.85C5608.39 1471.86 5537.67 1472.88 5508.72 1474.14L5456.06 1476.42L5456.25 2134.12L5456.43 2791.83L5625.36 2792.71L5794.29 2793.59V2374.69V1955.78L5802.24 1927.63C5819.26 1867.27 5847.14 1827.12 5894.53 1794.75C5929.86 1770.62 5964.77 1756.5 6014.53 1746.22C6045.65 1739.79 6058.95 1738.91 6102.25 1740.43C6165.05 1742.63 6198.82 1750.59 6250.02 1775.28C6299.61 1799.19 6326.44 1825.48 6349.84 1873.08C6358.88 1891.47 6369.8 1919.18 6374.12 1934.67L6381.96 1962.82L6383.76 2377.16L6385.56 2791.5L6553.62 2792.46L6721.67 2793.41V2355.11C6721.67 1895.72 6721.27 1881.87 6705.97 1810.03C6693.18 1750.01 6667.06 1688.56 6632.56 1637.3C6608.46 1601.51 6550.25 1543.64 6515.78 1521.21C6404.75 1448.96 6259.74 1419.26 6120.74 1440.29ZM7009.95 1474.5C7009.77 1475.95 7009.72 1772.95 7009.84 2134.49L7010.04 2791.85L7175.56 2792.63L7341.09 2793.41V2134.84V1476.26L7330.09 1474.06C7314.35 1470.91 7010.33 1471.33 7009.95 1474.5ZM383.8 1734.11C440.354 1745.82 480.339 1775.84 504.5 1824.73C516.73 1849.47 518.116 1855.19 519.661 1887.32C521.741 1930.51 515.1 1958.89 495.979 1988.47C464.638 2036.96 415.373 2062.99 354.754 2063.08C287.47 2063.19 233.094 2029.15 204.33 1968.91C191.491 1942.02 191.339 1941.19 191.339 1897.53C191.339 1853.36 191.339 1853.35 204.917 1825.88C229.599 1775.94 269.784 1744.66 322.851 1734.09C353.705 1727.95 354.019 1727.95 383.8 1734.11Z" fill="black" fill-opacity="0.8"/>
<path d="M3346.99 1902.26C3346.99 2092.75 3192.57 2247.17 3002.09 2247.17C2811.6 2247.17 2657.18 2092.75 2657.18 1902.26C2657.18 1711.77 2811.6 1557.35 3002.09 1557.35C3192.57 1557.35 3346.99 1711.77 3346.99 1902.26Z" fill="#ACACAC"/>
<path d="M1796.68 344.906C1796.68 535.392 1642.26 689.811 1451.77 689.811C1261.28 689.811 1106.87 535.392 1106.87 344.906C1106.87 154.419 1261.28 0 1451.77 0C1642.26 0 1796.68 154.419 1796.68 344.906Z" fill="#343434"/>
<path d="M1796.68 3444.59C1796.68 3635.08 1642.26 3789.5 1451.77 3789.5C1261.28 3789.5 1106.87 3635.08 1106.87 3444.59C1106.87 3254.11 1261.28 3099.69 1451.77 3099.69C1642.26 3099.69 1796.68 3254.11 1796.68 3444.59Z" fill="#343434"/>
</svg>
